HIERARCHY
ROOT joint_Root
{
	OFFSET 0.0 0.0 0.0
	CHANNELS 6 Xposition Yposition Zposition Zrotation Xrotation Yrotation 
	JOINT Hips
	{
		OFFSET 4.5925 91.4895 -427.239
		CHANNELS 6 Xposition Yposition Zposition Zrotation Xrotation Yrotation 
		JOINT Spine
		{
			OFFSET 15.7357 0.0 0.0
			CHANNELS 6 Xposition Yposition Zposition Zrotation Xrotation Yrotation 
			JOINT Chest
			{
				OFFSET 8.98455 -0.406207 0.0
				CHANNELS 6 Xposition Yposition Zposition Zrotation Xrotation Yrotation 
				JOINT Neck
				{
					OFFSET 16.3773 0.0 0.0
					CHANNELS 6 Xposition Yposition Zposition Zrotation Xrotation Yrotation 
					JOINT Head
					{
						OFFSET 6.45672 0.0 0.0
						CHANNELS 6 Xposition Yposition Zposition Zrotation Xrotation Yrotation 
						End Site
						{
							OFFSET 0.0 0.0 0.0
						}
					}
				}
				JOINT Shoulder_L
				{
					OFFSET 12.9942 -0.242716 4.98039
					CHANNELS 6 Xposition Yposition Zposition Zrotation Xrotation Yrotation 
					JOINT UpperArm_L
					{
						OFFSET 5.34809 0.0 0.0
						CHANNELS 6 Xposition Yposition Zposition Zrotation Xrotation Yrotation 
						JOINT LowerArm_L
						{
							OFFSET 24.3286 1.87007e-05 0.0
							CHANNELS 6 Xposition Yposition Zposition Zrotation Xrotation Yrotation 
							JOINT Hand_L
							{
								OFFSET 22.2916 0.0 0.0
								CHANNELS 6 Xposition Yposition Zposition Zrotation Xrotation Yrotation 
								End Site
								{
									OFFSET 0.0 0.0 0.0
								}
							}
						}
					}
				}
				JOINT Shoulder_R
				{
					OFFSET 12.9945 -0.242716 -4.98039
					CHANNELS 6 Xposition Yposition Zposition Zrotation Xrotation Yrotation 
					JOINT UpperArm_R
					{
						OFFSET -5.34813 0.0 0.0
						CHANNELS 6 Xposition Yposition Zposition Zrotation Xrotation Yrotation 
						JOINT LowerArm_R
						{
							OFFSET -24.3289 0.000322201 0.0
							CHANNELS 6 Xposition Yposition Zposition Zrotation Xrotation Yrotation 
							JOINT Hand_R
							{
								OFFSET -22.2915 -0.000108084 0.0
								CHANNELS 6 Xposition Yposition Zposition Zrotation Xrotation Yrotation 
								End Site
								{
									OFFSET 0.0 0.0 0.0
								}
							}
						}
					}
				}
			}
		}
		JOINT UpperLeg_L
		{
			OFFSET -2.19248 -6.46944 0.0
			CHANNELS 6 Xposition Yposition Zposition Zrotation Xrotation Yrotation 
			JOINT LowerLeg_L
			{
				OFFSET 39.0811 0.0 -1.23785e-05
				CHANNELS 6 Xposition Yposition Zposition Zrotation Xrotation Yrotation 
				JOINT Foot_L
				{
					OFFSET 40.9854 0.0 -1.26872e-05
					CHANNELS 6 Xposition Yposition Zposition Zrotation Xrotation Yrotation 
					JOINT Toes_L
					{
						OFFSET 11.7543 0.0 0.0
						CHANNELS 6 Xposition Yposition Zposition Zrotation Xrotation Yrotation 
						End Site
						{
							OFFSET 0.0 0.0 0.0
						}
					}
				}
			}
		}
		JOINT UpperLeg_R
		{
			OFFSET -2.19251 6.46944 0.0
			CHANNELS 6 Xposition Yposition Zposition Zrotation Xrotation Yrotation 
			JOINT LowerLeg_R
			{
				OFFSET -39.0811 -0.00228153 -0.0401928
				CHANNELS 6 Xposition Yposition Zposition Zrotation Xrotation Yrotation 
				JOINT Foot_R
				{
					OFFSET -40.9854 0.0 0.0
					CHANNELS 6 Xposition Yposition Zposition Zrotation Xrotation Yrotation 
					JOINT Toes_R
					{
						OFFSET -11.7543 0.0 0.0
						CHANNELS 6 Xposition Yposition Zposition Zrotation Xrotation Yrotation 
						End Site
						{
							OFFSET 0.0 0.0 0.0
						}
					}
				}
			}
		}
	}
}
MOTION
Frames:	4
Frame Time:	0.0333333
0.000000 0.000000 0.000000 0.000000 0.000000 -0.000000 5.445480 91.629100 -0.379521 87.927100 -19.010300 2.339510 15.735700 0.000005 -0.000001 74.613700 85.474900 -70.917800 8.984550 -0.406207 -0.000000 1.056290 -2.616370 7.411140 16.377300 -0.000001 -0.000001 5.072030 1.566610 -4.293040 6.456720 -0.000001 -0.000000 0.148378 1.863340 0.916729 12.994200 -0.242716 4.980390 -82.776000 -14.439800 -63.055000 5.348090 -0.000007 -0.000001 -33.672300 -71.001600 -81.266700 24.328600 0.000019 0.000005 7.562640 9.438520 -38.993300 22.291600 -0.000001 0.000005 19.912200 5.471210 -5.415560 12.994500 -0.242716 -4.980390 87.751500 8.487150 -75.102200 -5.348130 -0.000001 -0.000004 -58.503800 17.960100 1.448720 -24.328900 0.000322 -0.000009 0.003729 0.008876 -28.438000 -22.291500 -0.000108 -0.000004 19.228600 5.416030 -3.465830 -2.192480 -6.469440 -0.000000 -179.377000 -21.002400 -4.350400 39.081100 -0.000007 -0.000012 -0.081505 0.168710 25.785700 40.985400 -0.000006 -0.000013 2.271960 -3.297370 -69.464900 11.754300 -0.000000 0.000003 -0.000153 -0.001475 -16.633600 -2.192510 6.469440 -0.000001 174.378000 21.167800 172.808000 -39.081100 -0.002282 -0.040193 -0.035776 0.087066 24.178300 -40.985400 0.000008 0.000006 3.774610 29.515000 -65.174300 -11.754300 -0.000006 -0.000006 -0.001899 -0.027446 -17.689100
0.000000 0.000000 0.000000 0.000000 0.000000 -0.000000 5.318740 91.639400 -0.358832 87.936300 -18.712400 2.355760 15.735700 0.000005 -0.000001 74.702600 85.464000 -71.068000 8.984550 -0.406207 -0.000000 1.078950 -2.604290 7.288940 16.377300 -0.000001 -0.000001 5.172860 1.590840 -4.315210 6.456720 -0.000001 -0.000000 0.147999 1.940270 0.943569 12.994200 -0.242716 4.980390 -82.828100 -14.284800 -62.979900 5.348090 -0.000007 -0.000001 -33.912000 -70.792500 -81.194200 24.328600 0.000019 0.000005 7.858050 9.481560 -39.957000 22.291600 -0.000001 0.000005 19.996700 5.470000 -5.370580 12.994500 -0.242716 -4.980390 87.745100 8.485100 -75.058200 -5.348130 -0.000001 -0.000004 -58.140800 18.176100 0.900225 -24.328900 0.000322 -0.000009 0.004516 0.010389 -28.295700 -22.291500 -0.000108 -0.000004 19.246500 5.415670 -3.453960 -2.192480 -6.469440 -0.000000 -179.280000 -20.903000 -4.290790 39.081100 -0.000007 -0.000012 -0.080344 0.166564 25.751000 40.985400 -0.000006 -0.000013 2.238460 -3.093530 -69.447700 11.754300 -0.000000 0.000003 -0.000145 -0.001411 -16.631300 -2.192510 6.469440 -0.000001 174.414000 21.370200 172.918000 -39.081100 -0.002282 -0.040193 -0.034954 0.085186 24.190900 -40.985400 0.000008 0.000006 3.947990 29.379400 -65.326000 -11.754300 -0.000006 -0.000006 -0.001868 -0.027051 -17.673100
0.000000 0.000000 0.000000 0.000000 0.000000 -0.000000 5.172020 91.652700 -0.333101 87.947900 -18.344200 2.311170 15.735700 0.000005 -0.000001 74.717300 85.469900 -71.171600 8.984550 -0.406207 -0.000000 1.065240 -2.594170 7.110820 16.377300 -0.000001 -0.000001 5.177580 1.595810 -4.326520 6.456720 -0.000001 -0.000000 0.123925 2.032190 0.975312 12.994200 -0.242716 4.980390 -82.905500 -14.081000 -62.907600 5.348090 -0.000007 -0.000001 -34.102100 -70.475400 -80.734600 24.328600 0.000019 0.000005 7.926470 9.050590 -41.512000 22.291600 -0.000001 0.000005 20.054900 5.469290 -5.344050 12.994500 -0.242716 -4.980390 87.719400 8.479170 -74.885400 -5.348130 -0.000001 -0.000004 -57.928400 18.424600 0.283850 -24.328900 0.000322 -0.000009 -0.027207 -0.049164 -27.990000 -22.291500 -0.000108 -0.000004 19.330400 5.412950 -3.363270 -2.192480 -6.469440 -0.000000 -179.175000 -20.786400 -4.292440 39.081100 -0.000007 -0.000012 -0.082185 0.170676 25.712200 40.985400 -0.000006 -0.000013 2.198570 -2.815180 -69.421400 11.754300 -0.000000 0.000003 -0.000142 -0.001387 -16.630300 -2.192510 6.469440 -0.000001 174.485000 21.423800 172.992000 -39.081100 -0.002282 -0.040193 -0.038674 0.093602 24.159900 -40.985400 0.000008 0.000006 3.959560 29.058800 -65.396000 -11.754300 -0.000006 -0.000006 -0.001803 -0.026220 -17.639300
0.000000 0.000000 0.000000 0.000000 0.000000 -0.000000 4.997960 91.660100 -0.299329 87.957800 -17.963000 2.265050 15.735700 0.000005 -0.000001 74.644100 85.493500 -71.210300 8.984550 -0.406207 -0.000000 1.013320 -2.587910 6.886050 16.377300 -0.000001 -0.000001 5.255810 1.564080 -4.339520 6.456720 -0.000001 -0.000000 0.074683 2.051490 1.032800 12.994200 -0.242716 4.980390 -83.007100 -13.741200 -62.689200 5.348090 -0.000007 -0.000001 -34.502100 -69.760900 -80.370900 24.328600 0.000019 0.000005 7.955860 8.536260 -43.274700 22.291600 -0.000001 0.000005 20.011000 5.467800 -5.288340 12.994500 -0.242716 -4.980390 87.710500 8.477570 -74.826500 -5.348130 -0.000001 -0.000004 -57.920300 18.454600 -0.077554 -24.328900 0.000322 -0.000009 -0.114658 -0.215839 -27.755100 -22.291500 -0.000108 -0.000004 19.391400 5.410500 -3.281780 -2.192480 -6.469440 -0.000000 -179.048000 -20.723400 -4.286070 39.081100 -0.000007 -0.000012 -0.081341 0.169022 25.699100 40.985400 -0.000006 -0.000013 2.163630 -2.459100 -69.426000 11.754300 -0.000000 0.000003 -0.000148 -0.001433 -16.632000 -2.192510 6.469440 -0.000001 174.576000 21.370000 173.058000 -39.081100 -0.002282 -0.040193 -0.044456 0.106459 24.166300 -40.985400 0.000008 0.000006 3.940450 28.610600 -65.483300 -11.754300 -0.000006 -0.000006 -0.001511 -0.022423 -17.484900
